<svg
  width="24"
  height="24"
  viewBox="0 0 24 24"
  fill="none"
  xmlns="http://www.w3.org/2000/svg"
>
  <path
    fill-rule="evenodd"
    clip-rule="evenodd"
    d="M7.25 5.5C7.25 4.25736 8.25736 3.25 9.5 3.25H14.5C15.7426 3.25 16.75 4.25736 16.75 5.5V18.5C16.75 19.7426 15.7426 20.75 14.5 20.75H9.5C8.25736 20.75 7.25 19.7426 7.25 18.5V5.5ZM9.5 4.75C9.08579 4.75 8.75 5.08579 8.75 5.5V18.5C8.75 18.9142 9.08579 19.25 9.5 19.25H14.5C14.9142 19.25 15.25 18.9142 15.25 18.5V5.5C15.25 5.08579 14.9142 4.75 14.5 4.75H9.5ZM10.75 16.5C10.75 16.0858 11.0858 15.75 11.5 15.75H12.5C12.9142 15.75 13.25 16.0858 13.25 16.5C13.25 16.9142 12.9142 17.25 12.5 17.25H11.5C11.0858 17.25 10.75 16.9142 10.75 16.5Z"
    fill="currentColor"
  />
</svg>
