<?xml version="1.0" encoding="UTF-8"?>
<svg version="1.1" xmlns="http://www.w3.org/2000/svg" width="1024" height="1024">
<path d="M0 0 C8.4153215 -0.06986496 16.83051947 -0.12299484 25.24606037 -0.15543652 C29.1547866 -0.17101594 33.06331272 -0.19211069 36.97192383 -0.22631836 C40.75208152 -0.25919044 44.53204815 -0.27691091 48.31233788 -0.28463173 C49.74626862 -0.29012576 51.18019027 -0.30085254 52.61403847 -0.31719017 C64.23545743 -0.44420237 74.02094819 1.10583614 84.375 6.5 C85.03435547 6.83966797 85.69371094 7.17933594 86.37304688 7.52929688 C88.5882466 8.67466743 90.79437461 9.83630721 93 11 C94.71071954 11.89624949 96.42166602 12.79206591 98.1328125 13.6875 C100.73731434 15.05079761 103.34077746 16.41571884 105.93896484 17.79101562 C110.77995465 20.34707357 115.6505525 22.83404056 120.55126953 25.27368164 C128.12119732 29.04996317 135.67380337 32.86023042 143.22412109 36.67553711 C155.50302624 42.87971226 167.78954087 49.06863301 180.08106041 55.24777889 C187.48892805 58.97239637 194.89362559 62.70308537 202.29150391 66.44750977 C208.79220145 69.73780176 215.29850097 73.01669475 221.81168807 76.28219801 C225.2443779 78.0037307 228.67408018 79.73067313 232.09705734 81.4714489 C235.30948887 83.10494706 238.52922855 84.72303367 241.7550354 86.32994843 C243.48792351 87.19800352 245.21284693 88.08190288 246.93740845 88.96638489 C253.97955523 92.45060819 260.61087257 95.46905159 268.5076561 93.31642437 C271.08183085 92.33303226 273.52800307 91.21659851 276 90 C276.77200367 89.63670341 277.54400734 89.27340683 278.33940506 88.89910126 C280.74588387 87.74913679 283.12892589 86.5595304 285.51025391 85.35839844 C286.40284912 84.91224686 287.29544434 84.46609528 288.21508789 84.00642395 C291.13749427 82.54452971 294.05702991 81.07699883 296.9765625 79.609375 C299.03126695 78.58015327 301.08615093 77.5512899 303.14120483 76.52276611 C308.53886953 73.82013011 313.93411874 71.1127067 319.32885742 68.40423584 C324.77379706 65.67158272 330.22096299 62.94337546 335.66796875 60.21484375 C344.58040604 55.7498031 353.49126814 51.28163549 362.40069771 46.81059647 C366.50279303 44.75246856 370.60580535 42.69622934 374.71173096 40.64575195 C375.4418508 40.28112476 376.17197063 39.91649757 376.92421532 39.54082108 C378.25889177 38.87457638 379.5937639 38.20872345 380.92888832 37.54337692 C386.15767029 34.93372928 391.33571986 32.23448633 396.5 29.5 C409.76887378 22.52011983 423.15396623 15.85813839 436.73242188 9.49975586 C440.45131809 7.74736473 444.06559775 5.99958244 447.55859375 3.828125 C456.29409026 -0.81229766 465.70082199 -0.26780346 475.31640625 -0.1953125 C476.78327744 -0.19157522 478.25015116 -0.18873163 479.71702576 -0.18673706 C483.54911376 -0.17915685 487.38104644 -0.15955768 491.21307373 -0.1373291 C495.13486633 -0.11674868 499.05668441 -0.10770945 502.97851562 -0.09765625 C510.65241401 -0.07630558 518.32618511 -0.04223881 526 0 C526 0.99 526 1.98 526 3 C515.173109 11.82287512 499.64954769 17.22445949 487.0612793 23.14746094 C481.94359508 25.56376539 476.86561137 28.05317212 471.80664062 30.58984375 C470.37456086 31.30690165 468.9424723 32.02394198 467.51037598 32.7409668 C466.76838455 33.11264984 466.02639313 33.48433289 465.26191711 33.86727905 C461.54011967 35.73107764 457.81686566 37.59196147 454.09375 39.453125 C452.52928968 40.23533717 450.9648367 41.01756403 449.40039062 41.79980469 C370.63085937 81.18457031 370.63085937 81.18457031 368.8531599 82.07341576 C367.51710157 82.74144802 366.18104835 83.4094905 364.84499836 84.07753944 C364.13167945 84.43420881 363.41836054 84.79087818 362.6834259 85.15835571 C361.70872707 85.64572425 361.70872707 85.64572425 360.71433735 86.14293861 C358.79285752 87.10355828 356.87102097 88.06346301 354.94921875 89.0234375 C352.44900348 90.2732409 349.95217876 91.52910929 347.45703125 92.7890625 C338.24514016 97.43514701 328.95985709 101.92287561 319.65704346 106.38372803 C312.16390458 109.97859709 304.70574601 113.6325265 297.29296875 117.390625 C296.21168198 117.93746948 296.21168198 117.93746948 295.10855103 118.49536133 C291.60351798 120.26868209 288.1030679 122.0501449 284.609375 123.84570312 C274.4760929 129.01661429 266.55679387 132.17523235 255 130 C250.55988106 128.44454588 246.3910174 126.43671817 242.171875 124.36328125 C240.95093149 123.77800067 239.72937855 123.19398996 238.50726318 122.61116028 C234.65847217 120.7670516 230.82836296 118.88606351 227 117 C225.75256776 116.38774609 224.505091 115.77558288 223.25756836 115.16351318 C215.18944823 111.19889372 207.15218554 107.17395573 199.12341309 103.13037109 C195.9692032 101.54288708 192.81262485 99.9601269 189.65625 98.37695312 C181.89277061 94.48187127 174.13209426 90.58121708 166.37246704 86.6784668 C158.85362556 82.89835235 151.32456968 79.16211357 143.6875 75.625 C137.44795842 72.70282736 131.3214719 69.63104478 125.25 66.375 C115.46246452 61.1334038 105.47309814 56.32825119 95.46386719 51.52880859 C89.11266388 48.48207672 82.7794752 45.40638708 76.48413086 42.24560547 C71.11934071 39.55765348 65.75005328 36.87923512 60.37207031 34.21777344 C54.19817588 31.16236234 48.02752813 28.1004993 41.85945511 25.0333519 C38.16389767 23.19609874 34.46685557 21.36195779 30.76660156 19.53417969 C27.13959826 17.74241341 23.51656509 15.94284615 19.89614105 14.13782501 C18.52764621 13.45725557 17.15775268 12.77949072 15.7864151 12.10466766 C13.87887107 11.16543207 11.9765839 10.21626961 10.07519531 9.26464844 C8.99538391 8.72918396 7.91557251 8.19371948 6.80303955 7.64202881 C4.03002895 6.01759105 2.06781994 4.45151983 0 2 C0 1.34 0 0.68 0 0 Z " fill="#FAFBFB" transform="translate(249,657)"/>
<path d="M0 0 C5.70134105 3.13738986 11.46306083 6.14954903 17.2421875 9.140625 C24.5598277 12.93386823 31.83117811 16.79608297 39.0546875 20.765625 C48.48374369 25.94518568 57.97906479 30.99285555 67.4921875 36.015625 C77.59714714 41.3512654 87.68937656 46.70708148 97.7421875 52.140625 C107.5910543 57.46142845 117.4713589 62.72039063 127.3671875 67.953125 C128.08185181 68.33108215 128.79651611 68.70903931 129.53283691 69.09844971 C132.43068918 70.63094105 135.32863505 72.16325524 138.22668457 73.69537354 C173.76622036 92.48471012 173.76622036 92.48471012 189.3671875 100.953125 C190.24342773 101.42669434 191.11966797 101.90026367 192.02246094 102.38818359 C204.5966005 109.24748967 204.5966005 109.24748967 207.7421875 114.140625 C206.16143327 115.72137923 204.55846413 115.27573483 202.36523438 115.28588867 C201.43336304 115.29226852 200.5014917 115.29864838 199.54138184 115.30522156 C198.01656189 115.30689079 198.01656189 115.30689079 196.4609375 115.30859375 C194.89696228 115.31358635 194.89696228 115.31358635 193.3013916 115.31867981 C191.08537234 115.32375683 188.86934539 115.3260879 186.65332031 115.32592773 C183.28437359 115.32809783 179.91576299 115.34619971 176.546875 115.36523438 C174.39323028 115.36817153 172.23958401 115.37015417 170.0859375 115.37109375 C169.08558472 115.37827927 168.08523193 115.38546478 167.05456543 115.39286804 C159.0592536 115.36716654 151.74620013 114.56707651 144.60546875 110.7421875 C143.26343384 110.03304199 143.26343384 110.03304199 141.89428711 109.30957031 C140.95721924 108.80006836 140.02015137 108.29056641 139.0546875 107.765625 C138.04994385 107.2303418 137.0452002 106.69505859 136.01000977 106.14355469 C132.91356887 104.48882365 129.82651093 102.81781929 126.7421875 101.140625 C125.84274414 100.65239258 124.94330078 100.16416016 124.01660156 99.66113281 C120.51290919 97.75658174 117.01187743 95.84733413 113.51586914 93.92871094 C105.54354496 89.55672303 97.52109178 85.28238852 89.4921875 81.015625 C80.5951906 76.28683976 71.73083297 71.51130698 62.94335938 66.58105469 C57.83617139 63.72420637 52.67815383 60.97656808 47.4921875 58.265625 C35.02901855 51.75008585 22.69495966 44.99690155 10.39453125 38.1796875 C2.03131356 33.54871759 -6.3399396 29.04619322 -14.92578125 24.83984375 C-19.85784115 22.32466666 -24.62020529 19.54298121 -29.39453125 16.7421875 C-34.31602201 13.98937548 -38.71377353 13.14709681 -44.2578125 14.140625 C-48.8921559 16.01360139 -53.23078707 18.35585015 -57.62402344 20.73193359 C-60.64357449 22.34695116 -63.68657166 23.91161859 -66.734375 25.47265625 C-76.90843172 30.68878248 -87.06390044 35.91924942 -96.98583984 41.60400391 C-103.54880185 45.34868282 -110.21719681 48.89577195 -116.8828125 52.453125 C-125.32043686 56.95706088 -133.74559736 61.4806944 -142.1328125 66.078125 C-150.80721127 70.82985604 -159.52614795 75.49533579 -168.2578125 80.140625 C-177.11251244 84.85200882 -185.95502913 89.58263085 -194.7578125 94.390625 C-196.06177979 95.10013306 -196.06177979 95.10013306 -197.39208984 95.82397461 C-201.97704182 98.32419416 -206.53777017 100.8610089 -211.078125 103.44140625 C-212.04943359 103.98700195 -213.02074219 104.53259766 -214.02148438 105.09472656 C-215.85493622 106.12533925 -217.68240162 107.16671974 -219.50195312 108.22167969 C-229.54914542 113.83900861 -239.50829295 115.61258784 -250.9296875 115.43359375 C-252.50233368 115.42722649 -252.50233368 115.42722649 -254.10675049 115.42073059 C-257.40738224 115.40413405 -260.7073699 115.36651909 -264.0078125 115.328125 C-266.26561609 115.31305353 -268.52342939 115.29936948 -270.78125 115.28710938 C-276.27365182 115.25429333 -281.76568613 115.20428886 -287.2578125 115.140625 C-287.2578125 114.150625 -287.2578125 113.160625 -287.2578125 112.140625 C-282.96143848 107.91615682 -277.39908414 105.33593334 -272.1328125 102.515625 C-271.15505859 101.98710937 -270.17730469 101.45859375 -269.16992188 100.9140625 C-262.28199199 97.20002643 -255.362279 93.54752714 -248.42724609 89.92236328 C-242.49778542 86.81575337 -236.62396381 83.61489809 -230.7578125 80.390625 C-222.48698615 75.84931779 -214.14518396 71.46261328 -205.7578125 67.140625 C-196.662502 62.45198444 -187.63138861 57.669405 -178.66259766 52.7434082 C-171.34413427 48.7249233 -163.99495773 44.76594316 -156.6328125 40.828125 C-155.75174332 40.35672089 -155.75174332 40.35672089 -154.85287476 39.87579346 C-151.85663052 38.27277847 -148.86006823 36.67035946 -145.86328125 35.06835938 C-139.95153544 31.90791673 -134.04209682 28.74316727 -128.1328125 25.578125 C-126.97168945 24.95631348 -125.81056641 24.33450195 -124.61425781 23.69384766 C-116.86420368 19.54180106 -109.12191901 15.37553347 -101.3828125 11.203125 C-92.34211501 6.33151171 -83.29405912 1.47381359 -74.23577881 -3.36502075 C-72.93854057 -4.05815275 -71.64153524 -4.75172087 -70.3447876 -5.44577026 C-66.32316933 -7.59775812 -62.29447844 -9.73568949 -58.2578125 -11.859375 C-57.29488281 -12.36710449 -56.33195313 -12.87483398 -55.33984375 -13.39794922 C-54.46714844 -13.84799316 -53.59445312 -14.29803711 -52.6953125 -14.76171875 C-51.95152344 -15.14706787 -51.20773437 -15.53241699 -50.44140625 -15.92944336 C-33.61403648 -23.09575054 -14.1438081 -7.80881448 0 0 Z " fill="#F9FAFA" transform="translate(552.2578125,185.859375)"/>
<path d="M0 0 C8.56071601 8.75527774 11.05079551 18.48468065 11.03710938 30.37792969 C11.04394241 31.29926193 11.05077545 32.22059418 11.05781555 33.16984558 C11.07133428 35.15643656 11.08043183 37.14306164 11.08552551 39.12969208 C11.09385395 42.27361523 11.11439221 45.4172534 11.13806152 48.56109619 C11.19430686 56.36258922 11.22972748 64.16415114 11.26568604 71.96575928 C11.29691665 78.5729938 11.33607836 85.18008756 11.38594055 91.78720856 C11.40601052 94.88491186 11.41432634 97.98250648 11.42224121 101.08026123 C11.43521039 102.97506103 11.44873022 104.86985717 11.46289062 106.76464844 C11.46190872 107.62601913 11.46092682 108.48738983 11.45991516 109.37486267 C11.46818832 110.16814468 11.47646149 110.9614267 11.48498535 111.77874756 C11.48791847 112.46523251 11.49085159 113.15171745 11.4938736 113.85900497 C11.80157649 116.20587773 12.51998628 117.79763617 13.75 119.8125 C18.06359754 122.29608646 22.88478928 122.37680949 27.75 122.8125 C27.75 126.4425 27.75 130.0725 27.75 133.8125 C15.21 133.8125 2.67 133.8125 -10.25 133.8125 C-13.625 120.3125 -13.625 120.3125 -13.25 113.8125 C-15.70760151 116.23986739 -18.12422822 118.67255358 -20.43359375 121.2421875 C-28.43691788 129.92517 -38.33459031 136.23372184 -50.37890625 137.015625 C-64.90871701 137.21398419 -75.28177866 134.34426038 -86.0625 124.5 C-93.25643796 116.88974618 -94.76111628 106.97243484 -95.5625 96.875 C-95.16210976 85.38144476 -90.89495295 75.99950822 -82.625 68.125 C-70.18372685 57.99892618 -53.9124509 54.57315498 -38.4375 52 C-37.34683228 51.81401245 -37.34683228 51.81401245 -36.23413086 51.62426758 C-29.58089317 50.61831287 -22.96585808 50.70127368 -16.25 50.8125 C-16.31915331 46.36452884 -16.40725097 41.9174454 -16.51245117 37.47021484 C-16.54557926 35.95925096 -16.57364855 34.44816693 -16.59643555 32.93701172 C-16.63020681 30.75696918 -16.68252896 28.57801561 -16.73828125 26.3984375 C-16.76446533 25.0892334 -16.79064941 23.7800293 -16.81762695 22.43115234 C-17.45598854 17.08852362 -19.20299022 13.88385885 -22.9375 10.0625 C-29.16068125 5.34566335 -35.88852886 5.458399 -43.34375 6.27734375 C-49.18533844 7.35301259 -52.93053031 9.18853731 -56.6875 13.8125 C-59.16316149 18.56577007 -59.46610863 22.71817598 -59.8125 28.0625 C-59.89628906 29.32578125 -59.98007812 30.5890625 -60.06640625 31.890625 C-60.15728516 33.33695312 -60.15728516 33.33695312 -60.25 34.8125 C-76.1342745 35.40733414 -76.1342745 35.40733414 -83.5625 30.1875 C-86.95643516 25.41085052 -87.71618287 19.98987579 -86.8125 14.25 C-84.82016946 7.05756145 -79.67788396 2.49170805 -73.5625 -1.4375 C-51.29740713 -13.85197602 -21.31578534 -14.34716321 0 0 Z M-33.6875 65.0625 C-34.42468262 65.19672363 -35.16186523 65.33094727 -35.92138672 65.46923828 C-45.29038774 67.27801313 -54.95423692 70.2144015 -60.9765625 78.0625 C-66.68032637 86.49650155 -67.25478271 93.77406337 -66.25 103.8125 C-65.03710852 108.83733613 -63.17740526 112.21665216 -59.18359375 115.5234375 C-52.33694235 119.60661346 -45.01266425 119.9087201 -37.25 118.8125 C-28.25025704 116.03298755 -21.68572532 109.95441924 -17.11190796 101.8291626 C-15.62196157 98.34303729 -15.75665111 94.99227931 -15.859375 91.25390625 C-15.86786469 90.07017677 -15.86786469 90.07017677 -15.87652588 88.86253357 C-15.89874314 86.36604626 -15.94890781 83.87104625 -16 81.375 C-16.02008412 79.67254691 -16.03833153 77.97007111 -16.0546875 76.26757812 C-16.09855928 72.11532086 -16.16748092 67.96416172 -16.25 63.8125 C-22.23454786 63.69480978 -27.80405345 63.98225617 -33.6875 65.0625 Z " fill="#F8F9FA" transform="translate(677.25,419.1875)"/>
<path d="M0 0 C14.1882635 12.02819133 20.44976934 29.65674163 22.21875 47.75 C24.00106185 69.84056105 21.39821517 94.99800559 7.37207031 113.08984375 C-2.79885421 124.88893368 -15.68718963 132.32212839 -31.25 134.3125 C-49.40448231 135.41599074 -66.25035427 133.29916841 -80.5625 121.0625 C-96.2626209 106.06800251 -101.96758183 85.7593049 -102.53540039 64.5246582 C-102.7624469 44.41979233 -99.3584712 24.82405164 -87.25 8.3125 C-86.71632813 7.58289063 -86.18265625 6.85328125 -85.6328125 6.1015625 C-76.97401044 -4.71158266 -63.7426982 -10.24875071 -50.3203125 -12.37109375 C-31.883221 -14.27109936 -15.14133791 -11.2636782 0 0 Z M-62.6875 11.28515625 C-76.62669593 29.37126297 -74.99764738 59.91171613 -72.5625 81.4375 C-70.78071249 92.34004593 -68.25549859 104.24557815 -60.25 112.3125 C-59.77691406 112.79976562 -59.30382812 113.28703125 -58.81640625 113.7890625 C-52.82238211 119.34449951 -46.10868883 120.92189547 -38.1171875 120.65625 C-29.48894211 119.62180096 -21.73146325 116.17634981 -16.25 109.3125 C-3.24193454 87.46486279 -2.92570122 54.56124852 -8.72265625 30.33740234 C-11.42619419 20.01639592 -15.3208684 11.27472493 -24.5 5.3125 C-36.6202587 -1.66876901 -53.40187315 1.11825463 -62.6875 11.28515625 Z " fill="#F9FAFA" transform="translate(429.25,421.6875)"/>
<path d="M0 0 C4.38168642 4.28000171 7.13774693 7.57310008 7.25 13.8125 C7.19488345 18.06872223 6.84382293 20.66586277 4 24 C-0.45271579 28.21836233 -3.58144147 28.87270745 -9.5625 29.1875 C-14.40183194 28.92353644 -14.40183194 28.92353644 -17 27 C-17.50390625 24.390625 -17.50390625 24.390625 -17.5625 21.25 C-17.82579781 16.47057245 -18.05852087 12.95578228 -21 9 C-24.57154973 6.36385615 -27.24027103 5.78698875 -31.5625 6.125 C-35.31323963 6.73016135 -38.08967444 7.43206568 -41 10 C-44.56780017 16.88075747 -45.14795605 22.94612862 -45.09765625 30.58203125 C-45.09553383 31.80329964 -45.09553383 31.80329964 -45.09336853 33.04924011 C-45.08779317 35.63703156 -45.07524524 38.22473492 -45.0625 40.8125 C-45.05748181 42.57226437 -45.05291946 44.33203011 -45.04882812 46.09179688 C-45.03868481 50.39459209 -45.0191047 54.697198 -45 59 C-34.11 59 -23.22 59 -12 59 C-12 63.29 -12 67.58 -12 72 C-19.286427 73.03435084 -26.22372428 72.94735442 -33.5625 72.5625 C-34.66658203 72.51029297 -35.77066406 72.45808594 -36.90820312 72.40429688 C-39.60584136 72.27583791 -42.3029899 72.14093867 -45 72 C-44.8923959 85.30868752 -44.77974169 98.61732183 -44.66066074 111.9259119 C-44.60552352 118.10578223 -44.55211836 124.28565737 -44.50268555 130.46557617 C-44.45490614 136.43079595 -44.40255869 142.39595983 -44.34705925 148.36111259 C-44.32669713 150.63563073 -44.30797411 152.91016416 -44.29092598 155.18470955 C-44.26674566 158.37327719 -44.23671014 161.56174042 -44.20532227 164.75024414 C-44.19668907 166.15718285 -44.19668907 166.15718285 -44.18788147 167.59254456 C-44.47234251 176.53487944 -44.47234251 176.53487944 -41.05078125 184.328125 C-36.86488715 186.62205928 -32.88237201 187.15482607 -28.1875 187.75 C-27.30384766 187.87503906 -26.42019531 188.00007812 -25.50976562 188.12890625 C-23.3413987 188.43364971 -21.17211885 188.72350797 -19 189 C-18.97311849 190.64574566 -18.95365877 192.29161413 -18.9375 193.9375 C-18.92589844 194.85402344 -18.91429687 195.77054688 -18.90234375 196.71484375 C-19 199 -19 199 -20 200 C-22.26991887 200.09439978 -24.54281967 200.11742226 -26.81469727 200.11352539 C-27.88293228 200.11374443 -27.88293228 200.11374443 -28.9727478 200.1139679 C-31.33733112 200.1132687 -33.70183661 200.10547606 -36.06640625 200.09765625 C-37.70165463 200.09579209 -39.33690357 200.09436818 -40.97215271 200.09336853 C-45.28434785 200.08954318 -49.59650952 200.07971275 -53.90869141 200.06866455 C-58.30565946 200.0584508 -62.70263289 200.05387099 -67.09960938 200.04882812 C-75.73308831 200.03809049 -84.36654 200.02101387 -93 200 C-93 196.37 -93 192.74 -93 189 C-91.97519531 188.84144531 -90.95039063 188.68289063 -89.89453125 188.51953125 C-88.53367334 188.28490058 -87.17300565 188.0491647 -85.8125 187.8125 C-84.80219727 187.66071289 -84.80219727 187.66071289 -83.77148438 187.50585938 C-78.62688529 186.57732198 -76.11594724 185.17507359 -73 181 C-72.25903351 177.47810112 -72.30966122 174.01508413 -72.34057617 170.42651367 C-72.32485062 168.83070969 -72.32485062 168.83070969 -72.30880737 167.20266724 C-72.28003627 163.69080516 -72.28635175 160.17992768 -72.29296875 156.66796875 C-72.27985506 154.2312954 -72.26455186 151.79463293 -72.24714661 149.35798645 C-72.20724584 142.94807212 -72.19710281 136.53844184 -72.19311523 130.12841797 C-72.18379349 123.58617508 -72.14638587 117.04409977 -72.11132812 110.50195312 C-72.04670036 97.6679837 -72.01254893 84.83412059 -72 72 C-72.60062256 72.00523682 -73.20124512 72.01047363 -73.82006836 72.01586914 C-76.52586838 72.03658014 -79.23165177 72.04964125 -81.9375 72.0625 C-82.88302734 72.07087891 -83.82855469 72.07925781 -84.80273438 72.08789062 C-86.15141602 72.09272461 -86.15141602 72.09272461 -87.52734375 72.09765625 C-88.35999756 72.10289307 -89.19265137 72.10812988 -90.05053711 72.11352539 C-92 72 -92 72 -93 71 C-93.14355117 66.99779347 -93.04216403 63.00558317 -93 59 C-86.07 59 -79.14 59 -72 59 C-72.02320313 57.51371094 -72.04640625 56.02742188 -72.0703125 54.49609375 C-72.48414238 17.92885941 -72.48414238 17.92885941 -60.8203125 4.48828125 C-44.93410588 -10.38098826 -17.87120264 -13.24446836 0 0 Z " fill="#F9F9FA" transform="translate(333,353)"/>
<path d="M0 0 C4.51815339 4.25237966 6.79400084 9.74801434 7.15625 15.90625 C6.8302919 21.31715438 5.65380972 25.0887167 2 29.25 C-2.59652887 32.58248343 -6.52662556 33.39171157 -12.125 33.375 C-12.99382812 33.37757813 -13.86265625 33.38015625 -14.7578125 33.3828125 C-17 33.25 -17 33.25 -19 32.25 C-19.51103073 28.75606398 -19.83817131 25.28894798 -20.12304688 21.77148438 C-20.68640813 15.91963277 -21.99414493 11.50658695 -26 7 C-32.9440301 2.94931577 -40.7037143 2.58735298 -48.43359375 4.390625 C-55.70405633 6.82517868 -59.15024447 10.90315852 -62.8125 17.5625 C-65.11950291 22.68469177 -66.73459983 27.54726942 -67.67578125 33.1015625 C-67.80107208 33.83181137 -67.92636292 34.56206024 -68.05545044 35.31443787 C-69.25203149 42.88245262 -69.45515405 50.38483595 -69.39111328 58.03442383 C-69.37497615 60.31587205 -69.39111002 62.59555646 -69.41015625 64.87695312 C-69.4327149 79.88611079 -68.24504465 96.04184948 -58.44140625 108.1796875 C-52.02030097 114.36981777 -43.63904886 116.46996128 -34.9375 116.6875 C-21.66773178 116.23841396 -12.4764971 111.18417757 -3.3125 101.765625 C-1.90547163 100.26715397 -1.90547163 100.26715397 -1 98.25 C1.99220268 99.61370299 4.29026529 101.19908083 6.75 103.375 C7.36359375 103.91382813 7.9771875 104.45265625 8.609375 105.0078125 C9.06828125 105.41773438 9.5271875 105.82765625 10 106.25 C3.59301967 118.79700315 -6.61854577 127.46895886 -19.60546875 132.703125 C-35.2524096 137.46596659 -53.25873517 136.85244648 -68.25 130.125 C-83.11196422 121.97410337 -91.27063823 109.01080357 -96 93.25 C-103.06161006 68.74674404 -101.26882528 38.06463942 -89.00683594 15.41552734 C-81.14563279 2.04560994 -70.231238 -5.77597071 -55.58984375 -10.13671875 C-36.54972838 -14.64546402 -15.84031552 -11.87182883 0 0 Z " fill="#F8F9FA" transform="translate(564,420.75)"/>
<path d="M0 0 C1.16716867 0.00068513 2.33433735 0.00137026 3.53687477 0.00207615 C4.86855721 0.00339747 4.86855721 0.00339747 6.22714233 0.00474548 C6.23045248 0.94142594 6.23376263 1.8781064 6.23717308 2.84317112 C6.31817319 25.63642499 6.41049059 48.42961161 6.51466942 71.22277164 C6.56478763 82.24537837 6.6112307 93.26797769 6.64901733 104.29063416 C6.68196211 113.89816159 6.72180716 123.5056314 6.76993239 133.11309522 C6.79517258 138.199988 6.81696125 143.28684267 6.8304863 148.3737812 C6.84332907 153.16309765 6.86540752 157.95228326 6.89452553 162.74152756 C6.90358395 164.49787289 6.90928748 166.25423929 6.91135597 168.01060677 C6.91469078 170.4124111 6.93020094 172.81384725 6.94866943 175.21557617 C6.9467347 175.90722982 6.94479996 176.59888347 6.9428066 177.31149632 C6.99468191 181.83785705 7.69153968 185.74524433 9.22714233 190.00474548 C14.44861955 194.09725465 21.8255252 194.19741988 28.22714233 195.00474548 C28.22714233 198.63474548 28.22714233 202.26474548 28.22714233 206.00474548 C5.12714233 206.00474548 -17.97285767 206.00474548 -41.77285767 206.00474548 C-41.77285767 202.70474548 -41.77285767 199.40474548 -41.77285767 196.00474548 C-37.34550483 194.06828081 -33.15010198 193.34435181 -28.39395142 192.66490173 C-25.47252033 191.92910165 -23.9227907 191.1059272 -21.77285767 189.00474548 C-20.51680544 185.47096518 -20.63599178 181.96087251 -20.61895752 178.24191284 C-20.61457527 177.56274215 -20.61019301 176.88357145 -20.60567796 176.18381983 C-20.5923285 173.90920038 -20.58611998 171.63461963 -20.57998657 169.35997009 C-20.572083 167.72879869 -20.56381389 166.09762902 -20.5552063 164.46646118 C-20.52903091 159.11335409 -20.5136901 153.76023932 -20.49942017 148.40708923 C-20.49405996 146.56467242 -20.48868245 144.72225566 -20.48328781 142.87983894 C-20.46167189 135.22007264 -20.44293214 127.56030843 -20.43166542 119.90051937 C-20.41540224 108.91629194 -20.38215261 97.93241684 -20.32526457 86.94832224 C-20.28663227 79.22681475 -20.26704113 71.50540181 -20.26174486 63.78380018 C-20.25808416 59.16977254 -20.2459859 54.55612108 -20.21364212 49.9421978 C-20.1836767 45.6058018 -20.17720796 41.27001193 -20.18902588 36.93353462 C-20.18924754 35.33994925 -20.1808664 33.74633665 -20.16337204 32.15284729 C-20.14082396 29.98135723 -20.14890425 27.81209258 -20.16485596 25.64059448 C-20.16154581 24.42441405 -20.15823566 23.20823362 -20.15482521 21.95519924 C-20.48075709 18.81500422 -20.48075709 18.81500422 -23.18358421 17.12850285 C-25.43824496 16.14996904 -27.35072466 15.46706087 -29.76113892 15.05552673 C-30.81978149 14.86700134 -30.81978149 14.86700134 -31.89981079 14.67466736 C-32.62104126 14.55671814 -33.34227173 14.43876892 -34.08535767 14.31724548 C-34.82592407 14.1876947 -35.56649048 14.05814392 -36.32949829 13.92466736 C-38.142381 13.60887489 -39.95742618 13.30553965 -41.77285767 13.00474548 C-41.77285767 9.37474548 -41.77285767 5.74474548 -41.77285767 2.00474548 C-38.34753268 0.86297049 -35.54850751 0.79492065 -31.93692017 0.68833923 C-30.92412491 0.65716759 -30.92412491 0.65716759 -29.89086914 0.62536621 C-28.45690075 0.58212917 -27.02286486 0.54108387 -25.58877563 0.50205994 C-23.44032506 0.44340489 -21.29216713 0.37803778 -19.14395142 0.31138611 C-12.75955733 0.12280883 -6.38747936 -0.00486767 0 0 Z " fill="#FBFBFC" transform="translate(754.7728576660156,346.99525451660156)"/>
</svg>
