<?xml version="1.0" encoding="UTF-8"?>
<svg version="1.1" xmlns="http://www.w3.org/2000/svg" width="1024" height="1024">
<path d="M0 0 C7.32046357 -0.02337164 14.64091884 -0.04103966 21.96141243 -0.05181217 C25.36214662 -0.0569875 28.76285492 -0.0639854 32.16357422 -0.07543945 C36.090827 -0.0876986 40.01804393 -0.09327234 43.9453125 -0.09765625 C45.1417337 -0.10281754 46.33815491 -0.10797882 47.5708313 -0.11329651 C51.04900325 -0.11352295 54.52256624 -0.0702881 58 0 C59.17705505 0.01765411 60.35411011 0.03530823 61.5668335 0.05349731 C70.07093896 0.38803323 76.40785445 2.24738942 84 6 C85.43433787 6.69445543 86.86884993 7.38855115 88.30349731 8.08236694 C93.47395106 10.60181676 98.61385466 13.18096538 103.75390625 15.76171875 C105.66407355 16.71740025 107.5743904 17.6727829 109.48484802 18.62788391 C113.47755411 20.62501554 117.46891214 22.62480706 121.45922852 24.62670898 C126.51742133 27.16425545 131.57819496 29.69660028 136.63992405 32.22708416 C140.58495528 34.19973733 144.52893086 36.17449344 148.47257805 38.14991188 C150.33504148 39.08271066 152.19773065 40.0150589 154.06067085 40.94690514 C165.07657183 46.45951299 176.02966442 52.07397833 186.91325378 57.84371948 C192.48310396 60.79327407 198.1076662 63.62917535 203.75 66.4375 C204.83780762 66.98043701 205.92561523 67.52337402 207.04638672 68.08276367 C215.31699495 72.1964829 223.6346332 76.20586735 231.97900391 80.16748047 C238.37715996 83.20815481 244.73194165 86.32348261 251.04345703 89.5402832 C252.68844343 90.37452954 254.34382618 91.18818998 256 92 C256.78117187 92.42152344 257.56234375 92.84304688 258.3671875 93.27734375 C266.12592943 95.40696876 273.04073112 92.00583946 279.875 88.5625 C280.67679688 88.17384766 281.47859375 87.78519531 282.3046875 87.38476562 C286.44403624 85.35610614 290.54157409 83.25146523 294.61024475 81.08482361 C310.46109907 72.64687987 326.51984084 64.61937608 342.56640625 56.5625 C343.33114344 56.17848274 344.09588064 55.79446548 344.88379169 55.39881134 C352.11664289 51.76704597 359.35030337 48.13689701 366.58587742 44.51055908 C375.76996962 39.90751874 384.94990698 35.29639955 394.12453038 30.67451382 C400.62187043 27.40220092 407.12379996 24.13912935 413.62917179 20.88281345 C417.49769515 18.94608409 421.36412201 17.00542563 425.22561836 15.05471802 C428.84769449 13.22519204 432.47534753 11.40723378 436.10749245 9.59778404 C437.43255561 8.93522561 438.75559805 8.26860667 440.07634354 7.59748268 C449.75943681 2.68137223 458.06217526 -0.25695057 468.97851562 -0.24291992 C470.25263306 -0.24599655 471.52675049 -0.24907318 472.83947754 -0.25224304 C474.19507026 -0.24534936 475.55066113 -0.23808271 476.90625 -0.23046875 C478.32206175 -0.22927399 479.7378743 -0.22882441 481.15368652 -0.2290802 C484.098603 -0.2275273 487.04339584 -0.21932365 489.98828125 -0.20581055 C493.76560981 -0.18869677 497.54280473 -0.18500043 501.32016754 -0.18575573 C504.23345213 -0.18548438 507.14670743 -0.18001089 510.0599823 -0.17275429 C511.45387043 -0.1695722 512.84776187 -0.16760129 514.24165344 -0.16686058 C516.17999467 -0.16469925 518.11832349 -0.15516533 520.05664062 -0.14526367 C521.71016541 -0.13954597 521.71016541 -0.13954597 523.39709473 -0.13371277 C526 0 526 0 528 1 C527.40254613 4.65772197 527.11188208 4.91871881 523.85351562 7.28588867 C517.51782705 10.97442521 510.90817188 14.16909369 504.34375 17.42578125 C502.91360114 18.13898429 501.48363222 18.85254827 500.05383301 19.56645203 C496.3003877 21.43937685 492.54457157 23.30749701 488.78820801 25.17456055 C485.01624297 27.0503812 481.24647876 28.93061305 477.4765625 30.81054688 C473.20846489 32.93852847 468.94015138 35.06606907 464.67028809 37.19050598 C464.02055275 37.5137897 463.37081741 37.83707342 462.70139313 38.17015362 C461.39431989 38.8203572 460.08714442 39.47035533 458.77986908 40.12015247 C455.67669575 41.6635307 452.57716389 43.21326339 449.48266602 44.77401733 C441.44267105 48.82819089 433.35150745 52.76734659 425.23609793 56.66849124 C410.72092311 63.64735449 396.29662685 70.79595582 381.90479469 78.02530289 C377.83070563 80.07177758 373.75467994 82.11437607 369.6783905 84.15646362 C358.11482437 89.95012347 346.55382824 95.74890068 334.99438477 101.55078125 C328.55094342 104.78481175 322.10604308 108.0159163 315.65959758 111.24395454 C311.61723296 113.26837577 307.5766819 115.29635584 303.53751719 117.32715344 C301.02868236 118.58747418 298.51815158 119.84438699 296.00715065 121.10038567 C294.30946319 121.95079645 292.61377918 122.80520315 290.91818237 123.65977478 C278.30614938 129.95782233 267.40583925 134.93248912 253.11328125 131.2578125 C249.9753233 130.00262932 247.01598877 128.52783641 244 127 C242.27304009 126.18540926 240.54363439 125.3759938 238.8125 124.5703125 C228.80646415 119.88975554 218.95012657 114.98733571 209.21142578 109.77514648 C202.11520112 106.00197011 194.88723504 102.52976651 187.6171875 99.10546875 C182.39965454 96.6443683 177.21558548 94.12449036 172.05932617 91.53759766 C170.62865203 90.82106514 169.19796158 90.10456517 167.76725769 89.38809204 C166.99895315 89.00314198 166.23064861 88.61819191 165.43906212 88.22157669 C161.04651337 86.02161831 156.65200903 83.82557094 152.2578125 81.62890625 C150.28889136 80.64446664 148.31997883 79.66000979 146.35107422 78.67553711 C145.33688416 78.16844208 144.32269409 77.66134705 143.277771 77.1388855 C79.64892578 45.32446289 79.64892578 45.32446289 76.65434837 43.8271389 C74.74064026 42.87030803 72.82689549 41.91355049 70.91311073 40.95687294 C66.69611179 38.84875394 62.47957703 36.73972733 58.26473999 34.62728882 C57.5379454 34.26323944 56.81115082 33.89919006 56.06233215 33.52410889 C54.74929671 32.86633458 53.4364862 32.20811094 52.12397766 31.54928589 C47.08233326 29.02442192 41.99880168 26.59645943 36.90405273 24.1809082 C27.62516703 19.7780835 18.41517624 15.30587944 9.4375 10.3125 C8.70031738 9.90273926 7.96313477 9.49297852 7.20361328 9.07080078 C4.52645794 7.5532931 2.1862902 6.1862902 0 4 C0 2.68 0 1.36 0 0 Z " fill="#262E89" transform="translate(248,656)"/>
<path d="M0 0 C2.70533129 1.42529315 5.36830173 2.91369371 8.01635742 4.44262695 C11.20068482 6.24827494 14.45569372 7.90794004 17.70996094 9.58325195 C26.83729541 14.2915766 35.85163835 19.20299309 44.85424805 24.14428711 C52.38893952 28.26812001 59.99493058 32.24388408 67.62084961 36.19580078 C75.12355093 40.09433787 82.54701415 44.12517179 89.95727539 48.19604492 C96.50371068 51.78210933 103.09964435 55.261726 109.72680664 58.69604492 C118.19940004 63.08670061 126.59375209 67.60149135 134.95727539 72.19604492 C141.50371384 75.78211106 148.09971135 79.26159342 154.72680664 82.69604492 C162.92919948 86.94852763 171.06204581 91.30865362 179.1574707 95.76098633 C185.01737722 98.97284524 190.90630503 102.12518876 196.81665039 105.24291992 C197.56993118 105.6404245 198.32321198 106.03792908 199.09931946 106.44747925 C202.8560958 108.42873483 206.61498929 110.40585546 210.37646484 112.37817383 C230.47178414 122.94102242 230.47178414 122.94102242 234.22680664 126.69604492 C234.22680664 128.01604492 234.22680664 129.33604492 234.22680664 130.69604492 C226.73791227 130.79805502 219.24919927 130.86776537 211.75976562 130.91577148 C209.2157522 130.93579927 206.67178429 130.96302956 204.12792969 130.99780273 C200.45634681 131.04670923 196.78537631 131.06910313 193.11352539 131.08666992 C191.98911545 131.10731506 190.86470551 131.12796021 189.70622253 131.14923096 C178.10504248 131.15247545 169.2161522 127.00649616 159.28930664 121.38354492 C157.36420939 120.31330323 155.43839184 119.24435645 153.51196289 118.17651367 C152.49763184 117.6123877 151.48330078 117.04826172 150.43823242 116.46704102 C145.3246563 113.64707134 140.17203457 110.90040202 135.01956177 108.15240479 C122.38012589 101.4097945 109.79193208 94.5760187 97.22680664 87.69604492 C86.40536719 81.77185798 75.58325426 75.85606349 64.6652832 70.11132812 C59.13458393 67.19421362 53.64727062 64.20174802 48.16430664 61.19604492 C39.41549493 56.40671612 30.63154903 51.68554622 21.82644653 47.00073242 C20.45135466 46.26906626 19.07656665 45.53682867 17.70211792 44.80395508 C13.84667258 42.74901476 9.98282276 40.71134596 6.11010742 38.68914795 C4.20617819 37.68516712 2.31616132 36.65784474 0.42602539 35.62817383 C-8.21210603 30.86540017 -8.21210603 30.86540017 -17.77319336 30.69604492 C-20.46920721 31.73536959 -22.76753288 32.76358015 -25.27319336 34.13354492 C-25.95897461 34.4919043 -26.64475586 34.85026367 -27.35131836 35.21948242 C-32.88944764 38.14013819 -38.33619664 41.23102688 -43.77124023 44.33837891 C-48.36583709 46.95225627 -53.02760198 49.3689578 -57.77319336 51.69604492 C-62.98901278 54.25924041 -68.10007627 56.94144835 -73.14819336 59.82104492 C-86.9080645 67.66658549 -100.93295701 75.0371745 -114.89819336 82.50854492 C-116.67991557 83.46184771 -118.46161826 84.41518696 -120.24328613 85.36859131 C-121.43213631 86.00476191 -122.62101991 86.64087008 -123.80993652 87.2769165 C-132.36049085 91.85231595 -140.88472075 96.47316994 -149.39160156 101.12915039 C-160.45357057 107.17510434 -171.57602941 113.10796819 -182.69555664 119.04711914 C-185.36036582 120.47486158 -188.01976074 121.91175235 -190.67553711 123.35620117 C-191.36526611 123.72970703 -192.05499512 124.10321289 -192.765625 124.48803711 C-194.47555525 125.41496078 -196.18310445 126.3462735 -197.89038086 127.27807617 C-205.17421194 130.86077357 -211.38793005 130.96183482 -219.39038086 130.89135742 C-220.60267365 130.88852753 -221.81496643 130.88569763 -223.06399536 130.88278198 C-226.92549625 130.87161159 -230.78676289 130.8465123 -234.64819336 130.82104492 C-237.27058584 130.81101108 -239.89298196 130.80188594 -242.51538086 130.79370117 C-248.93473125 130.7716825 -255.35394556 130.7382359 -261.77319336 130.69604492 C-261.0222168 125.91430664 -261.0222168 125.91430664 -258.78100586 123.94995117 C-257.35401367 123.11270508 -257.35401367 123.11270508 -255.89819336 122.25854492 C-255.34574951 121.93273437 -254.79330566 121.60692383 -254.22412109 121.27124023 C-246.71865212 116.9423961 -238.9546995 113.0589556 -231.24853516 109.10351562 C-224.18319968 105.47623223 -217.16691272 101.77858832 -210.21069336 97.94604492 C-200.86692548 92.80421334 -191.45430329 87.80009922 -182.02319336 82.82104492 C-171.87708059 77.46355776 -161.74316466 72.08698606 -151.64819336 66.63354492 C-142.04511793 61.44583264 -132.41580701 56.30971655 -122.77319336 51.19604492 C-106.79177916 42.71905226 -90.84918104 34.17167865 -74.95288086 25.53588867 C-63.8725159 19.51697103 -52.77207411 13.53692624 -41.6428833 7.60879517 C-40.19549188 6.83757232 -38.74850644 6.06558702 -37.30194092 5.29281616 C-35.27667901 4.21132149 -33.24979355 3.13293488 -31.22241211 2.05541992 C-30.61416092 1.73001724 -30.00590973 1.40461456 -29.37922668 1.0693512 C-20.24294035 -3.77213245 -9.43399044 -4.50040779 0 0 Z " fill="#262E89" transform="translate(525.773193359375,170.303955078125)"/>
<path d="M0 0 C8.91807515 8.67511477 10.50774361 18.57008461 10.73001671 30.6939764 C10.76567784 34.38484672 10.7770142 38.07525914 10.77439499 41.76629448 C10.77342113 44.79705156 10.7864687 47.82746237 10.80337524 50.85816956 C10.84941834 59.46653702 10.87428569 68.07486294 10.88085938 76.68334961 C10.88586538 81.96758871 10.91005247 87.25145666 10.94618607 92.53557014 C10.95598959 94.54461505 10.95831301 96.55371091 10.95301437 98.56277275 C10.94596649 101.36313799 10.96317326 104.16238689 10.98583984 106.96264648 C10.97766739 107.79125183 10.96949493 108.61985718 10.96107483 109.47357178 C11.01306703 113.07590197 11.16269079 115.23379111 13.34365845 118.16737366 C16.07536396 120.09310639 18.49205431 120.72925094 21.75 121.4375 C24.59625 122.05625 24.59625 122.05625 27.5 122.6875 C27.5 126.6475 27.5 130.6075 27.5 134.6875 C14.63 134.6875 1.76 134.6875 -11.5 134.6875 C-14.875 125.6875 -14.875 125.6875 -15.6875 121.1875 C-15.84605469 120.3315625 -16.00460937 119.475625 -16.16796875 118.59375 C-16.33232422 117.65015625 -16.33232422 117.65015625 -16.5 116.6875 C-17.03367187 117.32816406 -17.56734375 117.96882812 -18.1171875 118.62890625 C-27.24033772 129.21996819 -36.48876976 135.88175672 -50.5 137.6875 C-63.9781442 138.13121118 -75.40523318 136.29123545 -86 127.375 C-89.96081474 123.54748191 -92.72739154 119.90898796 -94.5 114.6875 C-94.85320313 113.65367187 -95.20640625 112.61984375 -95.5703125 111.5546875 C-98.55757822 99.12866624 -97.59917886 85.61106301 -91.25 74.5 C-80.86545269 58.92317904 -60.58704221 55.16271669 -43.5 51.6875 C-35.10599543 50.07385802 -27.03134104 49.59300428 -18.5 49.6875 C-18.54448823 45.56083348 -18.61466356 41.43543891 -18.70751953 37.30957031 C-18.73555071 35.90930039 -18.75685316 34.50887749 -18.77099609 33.10839844 C-18.8766448 21.80033555 -18.8766448 21.80033555 -23.5 11.6875 C-29.26446975 7.12269509 -35.31337625 6.03528928 -42.5 6.6875 C-48.76178715 7.74079444 -53.50393637 9.41019655 -57.38671875 14.60546875 C-59.44060177 18.44659032 -60.00009122 22.40256762 -60.5 26.6875 C-60.60957031 27.55890625 -60.71914063 28.4303125 -60.83203125 29.328125 C-61.08165221 31.44491075 -61.29468949 33.56595808 -61.5 35.6875 C-70.95064993 36.0818857 -78.80650362 36.23156869 -86.5625 30.375 C-90.12075921 25.4870107 -89.27507499 18.37138328 -88.5 12.6875 C-86.527614 8.01840545 -84.25692736 5.08662475 -80.5 1.6875 C-79.79875 1.0275 -79.0975 0.3675 -78.375 -0.3125 C-57.28803337 -14.98169418 -20.07436312 -16.99727096 0 0 Z M-60.5 77.6875 C-65.24775844 82.84916559 -67.44905655 88.33183541 -67.53125 95.359375 C-67.1217253 102.77177204 -65.43983025 108.48827296 -60.375 114 C-54.25222233 117.59380429 -47.80770436 119.50205883 -40.71875 118.31640625 C-32.00504914 115.84650161 -24.5829605 109.76863179 -19.91040039 102.06762695 C-18.25017376 98.08877327 -18.11786657 94.67563271 -18.20703125 90.4453125 C-18.21339851 89.29275467 -18.21339851 89.29275467 -18.21989441 88.11691284 C-18.23658174 85.68174015 -18.27421359 83.2474192 -18.3125 80.8125 C-18.32755977 79.15365785 -18.34124591 77.49480263 -18.35351562 75.8359375 C-18.38645241 71.7861341 -18.43816406 67.73696106 -18.5 63.6875 C-32.82028259 63.6875 -49.99166122 67.52777909 -60.5 77.6875 Z " fill="#262E89" transform="translate(678.5,419.3125)"/>
<path d="M0 0 C12.55576563 11.4201759 18.54855305 28.51892232 19.7265625 45.14453125 C20.80924914 71.90871457 19.01431378 97.50460468 0.2265625 118.20703125 C-12.96376669 130.84144619 -29.55484554 134.54492015 -47.2734375 134.3515625 C-61.42648447 133.79053462 -75.98545579 129.26934954 -86.40625 119.2734375 C-103.1287571 100.20698066 -107.59117471 76.87281973 -106.15332031 52.07275391 C-104.67118719 30.90279507 -98.64472056 11.72955314 -82.19921875 -2.671875 C-58.47731651 -21.26723648 -22.72925885 -18.55051195 0 0 Z M-62.2734375 8.14453125 C-76.59798601 22.99839333 -75.94141132 46.01514388 -75.66230774 65.27371216 C-75.31991206 80.98222842 -73.47380358 99.54345237 -62.03125 111.484375 C-55.52240429 116.84266718 -49.5912413 118.65417183 -41.2109375 118.44921875 C-33.05669164 117.60343261 -26.50963668 114.63235857 -20.98828125 108.53515625 C-11.01978646 94.63830246 -10.0372479 76.16808871 -10.0234375 59.70703125 C-10.02276276 58.98866089 -10.02208801 58.27029053 -10.02139282 57.53015137 C-10.04900636 39.06572831 -11.45555004 21.06946838 -25.0234375 7.14453125 C-35.35916513 -2.0427822 -52.05811374 -0.34304219 -62.2734375 8.14453125 Z " fill="#262E89" transform="translate(432.2734375,422.85546875)"/>
<path d="M0 0 C4.28516145 4.20009621 6.02556038 8.06547346 6.25 14.0625 C6.09304752 18.41793142 5.46131318 21.44166155 2.875 25.0625 C-1.99042299 29.45324758 -6.80429987 30.00103452 -13.125 30.0625 C-16.6875 29.75 -16.6875 29.75 -19.125 29.0625 C-20.9116365 25.48922701 -20.47752427 21.26871618 -20.6484375 17.32421875 C-21.24500443 13.24115821 -22.51434023 10.31523537 -25.8125 7.75 C-30.93555574 6.22692938 -34.72674783 6.37656497 -39.4375 8.6875 C-43.71771139 12.47001239 -45.28032737 16.52509556 -46.125 22.0625 C-46.20699733 24.85940256 -46.24160269 27.62986006 -46.22265625 30.42578125 C-46.22053383 31.61375557 -46.22053383 31.61375557 -46.21836853 32.82572937 C-46.21279457 35.34219219 -46.20024693 37.85856431 -46.1875 40.375 C-46.18248163 42.08658725 -46.17791931 43.79817591 -46.17382812 45.50976562 C-46.16368681 49.69407302 -46.14410646 53.87818562 -46.125 58.0625 C-35.235 58.0625 -24.345 58.0625 -13.125 58.0625 C-13.125 63.0125 -13.125 67.9625 -13.125 73.0625 C-29.46 73.5575 -29.46 73.5575 -46.125 74.0625 C-46.16693141 93.75628499 -46.06480194 113.44456406 -45.83746719 133.13695908 C-45.78692846 137.51477615 -45.74042885 141.8925561 -45.703125 146.27050781 C-45.66628827 150.58760789 -45.6200271 154.90450953 -45.56693649 159.22143936 C-45.54850129 160.84726703 -45.53335386 162.47313563 -45.52165604 164.09902573 C-45.50478887 166.35122149 -45.47578367 168.60295496 -45.44384766 170.85498047 C-45.43052399 172.13033661 -45.41720032 173.40569275 -45.4034729 174.71969604 C-45.13253379 177.97206399 -44.65371634 180.19293132 -43.125 183.0625 C-36.65140659 187.12731447 -28.5759353 187.24740412 -21.125 188.0625 C-21.125 192.3525 -21.125 196.6425 -21.125 201.0625 C-45.545 201.0625 -69.965 201.0625 -95.125 201.0625 C-95.125 196.7725 -95.125 192.4825 -95.125 188.0625 C-94.08859375 187.89234375 -93.0521875 187.7221875 -91.984375 187.546875 C-90.6144353 187.30291314 -89.24465141 187.05807521 -87.875 186.8125 C-87.19308594 186.70292969 -86.51117188 186.59335937 -85.80859375 186.48046875 C-81.2777234 185.64467713 -78.77874346 184.86024231 -76.125 181.0625 C-75.51325772 177.61209722 -75.56143222 174.19106236 -75.57910156 170.69433594 C-75.56876389 169.64036621 -75.55842621 168.58639648 -75.54777527 167.50048828 C-75.51827109 164.01579597 -75.51684644 160.53168258 -75.515625 157.046875 C-75.50064856 154.63119392 -75.48392256 152.2155231 -75.46551514 149.79986572 C-75.42176957 143.44095396 -75.40182639 137.08218034 -75.38677979 130.72314453 C-75.36723481 124.23461718 -75.32526184 117.74623958 -75.28515625 111.2578125 C-75.20977576 98.52606243 -75.16160411 85.79442067 -75.125 73.0625 C-81.725 73.0625 -88.325 73.0625 -95.125 73.0625 C-95.125 68.1125 -95.125 63.1625 -95.125 58.0625 C-88.525 58.0625 -81.925 58.0625 -75.125 58.0625 C-75.145625 55.731875 -75.16625 53.40125 -75.1875 51 C-75.23731277 16.45840453 -75.23731277 16.45840453 -63.79296875 3.5703125 C-47.17764585 -11.44962811 -18.08092544 -14.3439492 0 0 Z " fill="#262E89" transform="translate(335.125,352.9375)"/>
<path d="M0 0 C16.48109304 -0.37011702 31.87306354 2.25294516 44.24609375 13.7421875 C49.01154047 19.3448073 50.25814028 24.94478578 50.26953125 32.12109375 C49.35670155 37.68935493 47.7215449 40.63690915 43.26953125 44.12109375 C37.52788185 47.30521558 31.73308391 47.71808263 25.26953125 47.12109375 C23.78453125 46.62609375 23.78453125 46.62609375 22.26953125 46.12109375 C22.24375 45.22648437 22.21796875 44.331875 22.19140625 43.41015625 C21.78315783 31.06295235 21.78315783 31.06295235 15.80078125 20.65625 C10.4511058 17.1108283 3.86704634 16.5626735 -2.34765625 17.52734375 C-9.55509241 19.36754022 -14.30470085 22.4137881 -18.38671875 28.65234375 C-25.61678671 41.83658533 -26.22913365 55.89544822 -26.12158203 70.57348633 C-26.10546448 73.18428592 -26.12154162 75.79354311 -26.140625 78.40429688 C-26.160354 93.36569382 -25.16947711 108.41801452 -14.87890625 120.25 C-8.12227648 126.69706307 -1.54437161 128.26067593 7.64453125 128.55859375 C18.84129074 128.28987152 27.12117677 124.79110354 35.26953125 117.12109375 C36.2106219 115.99523399 37.13073302 114.85117652 38.01953125 113.68359375 C40.26953125 111.12109375 40.26953125 111.12109375 42.640625 110.7421875 C45.94500324 111.21845004 47.18105759 112.3422035 49.58203125 114.62109375 C50.27941406 115.27078125 50.97679687 115.92046875 51.6953125 116.58984375 C52.21480469 117.09515625 52.73429688 117.60046875 53.26953125 118.12109375 C51.55515835 127.02795068 42.66831202 134.85361817 35.6875 140.0390625 C20.61647578 149.70843372 2.7547756 150.90546137 -14.56640625 147.87109375 C-27.33944345 144.84341086 -38.1377508 137.88767301 -45.73046875 127.12109375 C-59.70214538 104.25835018 -60.86678008 74.01662652 -55.27832031 48.34082031 C-51.27071239 32.10322172 -43.34558416 17.0877518 -28.98046875 7.87109375 C-19.77057915 2.67903617 -10.44619852 0.46327919 0 0 Z " fill="#262E89" transform="translate(521.73046875,407.87890625)"/>
<path d="M0 0 C1.44136517 0.00251492 2.88273076 0.00479505 4.32409668 0.00683594 C7.81112565 0.01227438 11.29813808 0.0208649 14.78515625 0.03125 C14.7875446 0.97400599 14.78993296 1.91676197 14.79239368 2.88808632 C14.85117703 25.82287779 14.92705267 48.75756412 15.02087116 71.69223976 C15.06584493 82.78326086 15.10525598 93.87424973 15.1315918 104.96533203 C15.15455903 114.63183398 15.18794285 124.29823408 15.23385781 133.96465528 C15.25780716 139.08339221 15.27652474 144.20202817 15.28277016 149.32081985 C15.28881322 154.13891068 15.30878505 158.9567431 15.33943176 163.77473831 C15.34822444 165.54278775 15.35193203 167.31087093 15.35016441 169.07894135 C15.34851207 171.49438343 15.36520702 173.9090374 15.38642883 176.32437134 C15.38158126 177.02282878 15.37673368 177.72128621 15.37173921 178.44090903 C15.43790731 183.00923543 16.40915478 186.13812517 18.78515625 190.03125 C23.12211614 193.06319708 28.85124725 193.44939035 34 193.8203125 C35.78515625 194.03125 35.78515625 194.03125 36.78515625 195.03125 C36.88366796 196.86240883 36.91488254 198.69744933 36.91015625 200.53125 C36.91402344 202.03171875 36.91402344 202.03171875 36.91796875 203.5625 C36.78515625 206.03125 36.78515625 206.03125 35.78515625 207.03125 C33.60709906 207.12554342 31.42594345 207.14867538 29.24584961 207.14477539 C28.56295364 207.14492142 27.88005768 207.14506744 27.1764679 207.1452179 C24.90928011 207.14451876 22.64217351 207.1367264 20.375 207.12890625 C18.80701238 207.12704207 17.23902418 207.12561817 15.67103577 207.12461853 C11.53639122 207.12079334 7.40178159 207.11096306 3.26715088 207.09991455 C-0.94884773 207.08970044 -5.16485197 207.08512091 -9.38085938 207.08007812 C-17.65887201 207.06934078 -25.93684952 207.05174399 -34.21484375 207.03125 C-34.21484375 202.74125 -34.21484375 198.45125 -34.21484375 194.03125 C-32.53455078 193.75861328 -32.53455078 193.75861328 -30.8203125 193.48046875 C-29.34754806 193.22719079 -27.87489753 192.97324984 -26.40234375 192.71875 C-25.29536133 192.54182617 -25.29536133 192.54182617 -24.16601562 192.36132812 C-19.94345376 191.62685171 -19.94345376 191.62685171 -16.265625 189.55078125 C-13.91115049 186.14598354 -14.08211187 183.62563233 -14.06767273 179.50892639 C-14.06399604 178.83146455 -14.06031935 178.1540027 -14.05653125 177.45601171 C-14.0454763 175.17517537 -14.04164757 172.89438454 -14.0378418 170.61352539 C-14.03157866 168.98264928 -14.02493199 167.3517746 -14.01792908 165.72090149 C-14.00050886 161.28294847 -13.98996517 156.84500623 -13.98172355 152.40702748 C-13.97657701 149.63671572 -13.97050121 146.86640733 -13.96421242 144.09609795 C-13.94516002 135.43512594 -13.93092733 126.77416248 -13.92260045 118.11317354 C-13.91281789 108.10252426 -13.8864721 98.09209549 -13.84609956 88.08152395 C-13.81598987 80.35156247 -13.8011366 72.62166439 -13.79781944 64.89164537 C-13.79546362 60.27094177 -13.78643421 55.65047375 -13.76135826 51.02983284 C-13.73816142 46.68531508 -13.73381018 42.34118942 -13.74411964 37.9966259 C-13.74461712 36.39982681 -13.73823457 34.80300896 -13.7245636 33.20626831 C-13.70697379 31.03055518 -13.71388485 28.85626917 -13.72709656 26.68055725 C-13.7247082 25.46177918 -13.72231985 24.24300112 -13.71985912 22.98729038 C-13.93937069 19.96699379 -13.93937069 19.96699379 -16.00436115 18.1727972 C-19.30520072 16.46816303 -22.77162879 15.97425518 -26.40234375 15.40625 C-34.10712124 14.13897251 -34.10712124 14.13897251 -35.21484375 13.03125 C-35.28728428 11.01160801 -35.29861563 8.98957876 -35.27734375 6.96875 C-35.26832031 5.86402344 -35.25929688 4.75929688 -35.25 3.62109375 C-35.23839844 2.76644531 -35.22679687 1.91179687 -35.21484375 1.03125 C-23.47221776 0.19355948 -11.76814736 -0.03612867 0 0 Z " fill="#262E89" transform="translate(747.21484375,346.96875)"/>
</svg>
